<?xml version="1.0" encoding="utf-8"?>
<!-- Generator: Adobe Illustrator 23.0.0, SVG Export Plug-In . SVG Version: 6.00 Build 0)  -->
<svg version="1.1" id="레이어_1" xmlns="http://www.w3.org/2000/svg" xmlns:xlink="http://www.w3.org/1999/xlink" x="0px"
	 y="0px" viewBox="0 0 186.8 32.6" style="enable-background:new 0 0 186.8 32.6;" xml:space="preserve">
<style type="text/css">
	.st0{fill:#1D1F40;}
</style>
<g>
	<g>
		<g>
			<path class="st0" d="M5.5,31.3V16.4H1.9c-0.3,0-0.6-0.1-0.9-0.2c-0.2-0.1-0.4-0.3-0.6-0.5c-0.2-0.2-0.3-0.4-0.3-0.7
				C0,14.8,0,14.6,0,14.3c0-0.2,0-0.5,0.1-0.7c0.1-0.2,0.2-0.5,0.3-0.7c0.1-0.2,0.3-0.4,0.6-0.5c0.2-0.1,0.5-0.2,0.9-0.2h12.2
				c0.3,0,0.6,0.1,0.9,0.2c0.2,0.1,0.4,0.3,0.6,0.5c0.1,0.2,0.3,0.4,0.3,0.7c0.1,0.2,0.1,0.5,0.1,0.7c0,0.2,0,0.5-0.1,0.7
				c-0.1,0.3-0.2,0.5-0.3,0.7c-0.2,0.2-0.4,0.4-0.6,0.5c-0.2,0.1-0.5,0.2-0.9,0.2h-3.6v14.9H5.5z"/>
		</g>
		<g>
			<path class="st0" d="M26,31.3v-8.6c0-0.4-0.1-0.7-0.2-1c-0.1-0.3-0.3-0.5-0.5-0.7c-0.2-0.2-0.4-0.3-0.6-0.4
				c-0.2-0.1-0.4-0.1-0.7-0.1c-0.2,0-0.4,0-0.7,0.1c-0.2,0.1-0.4,0.2-0.6,0.3c-0.2,0.2-0.3,0.4-0.5,0.6c-0.1,0.3-0.2,0.6-0.2,1v8.7
				h-4.8V13.7c0-0.4,0.1-0.7,0.2-1c0.1-0.3,0.3-0.5,0.5-0.7c0.2-0.2,0.5-0.3,0.8-0.4c0.3-0.1,0.6-0.2,0.9-0.2c0.3,0,0.6,0.1,0.9,0.2
				c0.3,0.1,0.5,0.3,0.8,0.4c0.2,0.2,0.4,0.4,0.5,0.7c0.1,0.3,0.2,0.6,0.2,1v4c0.4-0.4,0.9-0.6,1.4-0.8c0.5-0.2,1.1-0.3,1.7-0.3
				c0.8,0,1.5,0.1,2.2,0.3c0.7,0.2,1.3,0.6,1.8,1.1c0.5,0.5,0.9,1.2,1.2,2c0.3,0.8,0.5,1.9,0.5,3.1v8.3H26z"/>
		</g>
		<g>
			<path class="st0" d="M40.3,31.7c-0.9,0-1.7-0.1-2.6-0.3c-0.9-0.2-1.7-0.6-2.4-1.1c-0.7-0.5-1.3-1.2-1.7-2
				c-0.4-0.8-0.7-1.9-0.7-3.1v-2.1c0-1.3,0.2-2.3,0.6-3.1c0.4-0.8,1-1.5,1.6-2c0.7-0.5,1.4-0.9,2.2-1.1c0.8-0.2,1.6-0.3,2.3-0.3
				c0.8,0,1.6,0.1,2.4,0.3c0.8,0.2,1.5,0.6,2.1,1.1c0.6,0.6,1.1,1.3,1.5,2.3c0.4,1,0.6,2.3,0.6,3.8c0,0.2,0,0.4,0,0.7
				c0,0.3-0.1,0.5-0.1,0.7h-8.5v0c0,0.4,0.1,0.8,0.3,1c0.2,0.3,0.4,0.5,0.7,0.7c0.3,0.2,0.6,0.3,0.9,0.4c0.3,0.1,0.6,0.1,0.9,0.1
				c0.6,0,1,0,1.3-0.1c0.3,0,0.6-0.1,0.9-0.2c0.2-0.1,0.4-0.1,0.5-0.2c0.2-0.1,0.4-0.1,0.6-0.2c0.4,0,0.8,0,1.1,0.1
				c0.3,0.1,0.6,0.4,0.7,0.8c0.3,0.6,0.3,1.1,0,1.6c-0.2,0.5-0.7,0.9-1.2,1.2c-0.2,0.1-0.4,0.2-0.7,0.3c-0.3,0.1-0.6,0.2-1,0.3
				c-0.4,0.1-0.8,0.2-1.2,0.2C41.1,31.7,40.7,31.7,40.3,31.7z M39.8,20.3c-0.3,0-0.5,0-0.8,0.1c-0.2,0.1-0.5,0.2-0.7,0.4
				s-0.3,0.4-0.5,0.6c-0.1,0.3-0.2,0.6-0.2,1h4c0-0.4,0-0.7-0.1-1c-0.1-0.3-0.2-0.5-0.4-0.6c-0.2-0.2-0.4-0.3-0.6-0.4
				C40.3,20.4,40,20.3,39.8,20.3z"/>
		</g>
	</g>
	<g>
		<g>
			<path class="st0" d="M77.8,9.6c0,1.2-0.3,2.4-0.9,3.4c-0.6,1.1-1.6,1.9-2.8,2.6c1.7,0.7,3,1.6,3.7,2.9c0.8,1.2,1.2,2.6,1.2,4.2v0
				c0,1.7-0.3,3.1-0.9,4.3c-0.6,1.2-1.5,2.1-2.6,2.8c-1.1,0.7-2.4,1.3-3.9,1.6c-1.5,0.3-3.1,0.5-4.9,0.5h-6.9c-1.2,0-2.2-0.1-3-0.3
				c-0.8-0.2-1.4-0.6-1.9-1.1c-0.5-0.5-0.8-1.1-1-1.9c-0.2-0.8-0.3-1.7-0.3-2.9V6.4c0-1.1,0.1-2.1,0.3-2.9c0.2-0.8,0.5-1.4,1-1.9
				c0.5-0.5,1.1-0.9,1.9-1.1c0.8-0.2,1.8-0.3,3-0.3h5.8c1.8,0,3.5,0.2,5,0.6c1.5,0.4,2.8,1,3.8,1.8c1.1,0.8,1.9,1.7,2.5,2.9
				c0.6,1.1,0.9,2.5,0.9,3.9V9.6z M62.9,6.9c-0.4,0-0.7,0.1-0.9,0.2c-0.2,0.1-0.2,0.5-0.2,0.9v4.8H66c0.7,0,1.2-0.1,1.7-0.3
				c0.5-0.2,0.9-0.4,1.2-0.7c0.3-0.3,0.5-0.6,0.7-0.9c0.1-0.3,0.2-0.7,0.2-1V9.7c0-0.7-0.3-1.4-0.9-2c-0.6-0.6-1.5-0.9-2.9-0.9H62.9
				z M61.7,19.3v4.8c0,0.5,0.1,0.8,0.2,0.9c0.2,0.1,0.5,0.2,0.9,0.2h4.3c1.3,0,2.3-0.3,2.9-0.9c0.6-0.6,0.9-1.2,0.9-2v-0.3
				c0-0.7-0.3-1.4-0.9-2c-0.6-0.6-1.5-0.9-2.9-0.9H61.7z"/>
		</g>
		<g>
			<path class="st0" d="M93.8,32.6c-1.4,0-2.9-0.2-4.3-0.6c-1.4-0.4-2.8-1-3.9-1.8c-1.2-0.8-2.1-2-2.8-3.4c-0.7-1.4-1.1-3.1-1.1-5.2
				v-3.5c0-2.1,0.3-3.9,1-5.2c0.7-1.4,1.6-2.5,2.7-3.4c1.1-0.8,2.3-1.4,3.6-1.8c1.3-0.4,2.6-0.5,3.9-0.5c1.4,0,2.7,0.2,4,0.5
				c1.3,0.3,2.5,1,3.5,1.9c1,0.9,1.8,2.2,2.5,3.8c0.6,1.6,0.9,3.8,0.9,6.4c0,0.3,0,0.7-0.1,1.2c0,0.5-0.1,0.9-0.1,1.2H89.4v0
				c0,0.7,0.1,1.3,0.4,1.7c0.3,0.4,0.7,0.8,1.1,1.1c0.4,0.3,0.9,0.5,1.5,0.6c0.5,0.1,1,0.2,1.5,0.2c1,0,1.7,0,2.2-0.1
				c0.5-0.1,1.1-0.2,1.6-0.4c0.3-0.1,0.6-0.2,0.9-0.3c0.3-0.1,0.6-0.2,1-0.3c0.7-0.1,1.3,0,1.9,0.2c0.6,0.2,1,0.7,1.2,1.3
				c0.4,1,0.4,1.9,0,2.7c-0.4,0.8-1.1,1.5-2,2c-0.3,0.2-0.7,0.4-1.2,0.6c-0.5,0.2-1,0.4-1.7,0.5c-0.6,0.2-1.3,0.3-2,0.4
				C95.2,32.6,94.5,32.6,93.8,32.6z M92.9,13.7c-0.4,0-0.9,0.1-1.3,0.2c-0.4,0.1-0.8,0.3-1.1,0.6c-0.3,0.3-0.6,0.6-0.8,1.1
				c-0.2,0.4-0.3,1-0.3,1.6h6.7c0-0.7,0-1.2-0.2-1.6c-0.2-0.4-0.4-0.8-0.7-1.1c-0.3-0.3-0.6-0.5-1-0.6
				C93.7,13.7,93.3,13.7,92.9,13.7z"/>
		</g>
		<g>
			<path class="st0" d="M110.1,14.6h-1.3c-1.2,0-2.1-0.3-2.7-1c-0.5-0.7-0.8-1.4-0.8-2.2c0-0.4,0.1-0.8,0.2-1.2
				c0.1-0.4,0.3-0.8,0.6-1.1c0.3-0.3,0.6-0.6,1.1-0.8c0.4-0.2,1-0.3,1.6-0.3h1.3V3.9c0-0.7,0.1-1.2,0.3-1.7c0.2-0.5,0.5-0.9,0.9-1.2
				c0.4-0.3,0.8-0.6,1.2-0.7C113,0.1,113.5,0,114,0c0.5,0,1,0.1,1.4,0.2c0.5,0.2,0.9,0.4,1.2,0.7c0.4,0.3,0.7,0.7,0.9,1.2
				c0.2,0.5,0.3,1.1,0.3,1.7V8h2.3c0.6,0,1.2,0.1,1.6,0.3c0.4,0.2,0.8,0.5,1.1,0.8c0.3,0.3,0.5,0.7,0.6,1.1c0.1,0.4,0.2,0.8,0.2,1.2
				c0,0.8-0.3,1.6-0.8,2.2c-0.5,0.7-1.4,1-2.7,1h-2.3v9.8c0,0.6,0.1,1,0.4,1.2c0.2,0.2,0.5,0.3,0.9,0.3c0.3,0,0.6,0,0.8-0.1
				c0.2-0.1,0.6-0.1,0.9-0.1c0.7,0,1.2,0.2,1.7,0.6c0.5,0.4,0.8,0.9,0.9,1.6c0.2,0.8,0.1,1.5-0.2,2.2c-0.3,0.6-0.7,1.1-1.3,1.5
				c-0.4,0.3-1,0.5-1.7,0.7c-0.7,0.2-1.4,0.3-2.1,0.3c-1.3,0-2.5-0.1-3.5-0.4c-1-0.3-1.9-0.7-2.6-1.4c-0.7-0.6-1.3-1.5-1.6-2.5
				c-0.4-1-0.6-2.3-0.6-3.8V14.6z"/>
		</g>
		<g>
			<path class="st0" d="M128.7,14.6h-1.3c-1.2,0-2.1-0.3-2.7-1c-0.5-0.7-0.8-1.4-0.8-2.2c0-0.4,0.1-0.8,0.2-1.2
				c0.1-0.4,0.3-0.8,0.6-1.1c0.3-0.3,0.6-0.6,1.1-0.8c0.4-0.2,1-0.3,1.6-0.3h1.3V3.9c0-0.7,0.1-1.2,0.3-1.7c0.2-0.5,0.5-0.9,0.9-1.2
				c0.4-0.3,0.8-0.6,1.2-0.7c0.5-0.2,0.9-0.2,1.4-0.2c0.5,0,1,0.1,1.4,0.2c0.5,0.2,0.9,0.4,1.2,0.7c0.4,0.3,0.7,0.7,0.9,1.2
				c0.2,0.5,0.3,1.1,0.3,1.7V8h2.3c0.6,0,1.2,0.1,1.6,0.3c0.4,0.2,0.8,0.5,1.1,0.8c0.3,0.3,0.5,0.7,0.6,1.1c0.1,0.4,0.2,0.8,0.2,1.2
				c0,0.8-0.3,1.6-0.8,2.2c-0.5,0.7-1.4,1-2.7,1h-2.3v9.8c0,0.6,0.1,1,0.4,1.2c0.2,0.2,0.5,0.3,0.9,0.3c0.3,0,0.6,0,0.8-0.1
				c0.2-0.1,0.6-0.1,0.9-0.1c0.7,0,1.2,0.2,1.7,0.6c0.5,0.4,0.8,0.9,0.9,1.6c0.2,0.8,0.1,1.5-0.2,2.2c-0.3,0.6-0.7,1.1-1.3,1.5
				c-0.4,0.3-1,0.5-1.7,0.7c-0.7,0.2-1.4,0.3-2.1,0.3c-1.3,0-2.5-0.1-3.5-0.4c-1-0.3-1.9-0.7-2.6-1.4c-0.7-0.6-1.3-1.5-1.6-2.5
				c-0.4-1-0.6-2.3-0.6-3.8V14.6z"/>
		</g>
		<g>
			<path class="st0" d="M156.3,32.6c-1.4,0-2.9-0.2-4.3-0.6c-1.4-0.4-2.8-1-3.9-1.8c-1.2-0.8-2.1-2-2.8-3.4
				c-0.7-1.4-1.1-3.1-1.1-5.2v-3.5c0-2.1,0.3-3.9,1-5.2c0.7-1.4,1.6-2.5,2.7-3.4c1.1-0.8,2.3-1.4,3.6-1.8c1.3-0.4,2.6-0.5,3.9-0.5
				c1.4,0,2.7,0.2,4,0.5c1.3,0.3,2.5,1,3.5,1.9c1,0.9,1.8,2.2,2.5,3.8c0.6,1.6,0.9,3.8,0.9,6.4c0,0.3,0,0.7-0.1,1.2
				c0,0.5-0.1,0.9-0.1,1.2H152v0c0,0.7,0.1,1.3,0.4,1.7c0.3,0.4,0.7,0.8,1.1,1.1c0.4,0.3,0.9,0.5,1.5,0.6c0.5,0.1,1,0.2,1.5,0.2
				c1,0,1.7,0,2.2-0.1c0.5-0.1,1.1-0.2,1.6-0.4c0.3-0.1,0.6-0.2,0.9-0.3c0.3-0.1,0.6-0.2,1-0.3c0.7-0.1,1.3,0,1.9,0.2
				c0.6,0.2,1,0.7,1.2,1.3c0.4,1,0.4,1.9,0,2.7c-0.4,0.8-1.1,1.5-2,2c-0.3,0.2-0.7,0.4-1.2,0.6c-0.5,0.2-1,0.4-1.7,0.5
				c-0.6,0.2-1.3,0.3-2,0.4C157.8,32.6,157.1,32.6,156.3,32.6z M155.5,13.7c-0.4,0-0.9,0.1-1.3,0.2c-0.4,0.1-0.8,0.3-1.1,0.6
				c-0.3,0.3-0.6,0.6-0.8,1.1c-0.2,0.4-0.3,1-0.3,1.6h6.7c0-0.7,0-1.2-0.2-1.6c-0.2-0.4-0.4-0.8-0.7-1.1c-0.3-0.3-0.6-0.5-1-0.6
				C156.3,13.7,155.9,13.7,155.5,13.7z"/>
		</g>
		<g>
			<path class="st0" d="M169.9,31.9V11.2c0-0.7,0.1-1.2,0.3-1.7c0.2-0.5,0.5-0.9,0.9-1.2c0.4-0.3,0.8-0.6,1.3-0.8
				c0.5-0.2,1-0.3,1.5-0.3c0.8,0,1.5,0.2,2.2,0.6c0.7,0.4,1.2,0.9,1.5,1.7c0.7-0.7,1.6-1.2,2.4-1.6c0.9-0.4,1.8-0.6,2.8-0.6
				c0.3,0,0.6,0,0.9,0.1c0.3,0,0.6,0.1,0.9,0.3c0.8,0.3,1.3,0.8,1.7,1.6c0.4,0.7,0.5,1.6,0.4,2.5c-0.1,0.9-0.5,1.7-1.2,2.2
				c-0.6,0.6-1.4,0.8-2.3,0.8c-0.3,0-0.6,0-0.9,0c-0.3,0-0.6,0-0.9,0c-1.1,0.1-2,0.4-2.6,1c-0.6,0.6-1,1.4-1,2.4v13.9H169.9z"/>
		</g>
	</g>
</g>
</svg>
