<?xml version="1.0" encoding="utf-8"?>
<!-- Generator: Adobe Illustrator 23.0.0, SVG Export Plug-In . SVG Version: 6.00 Build 0)  -->
<svg version="1.1" id="레이어_1" xmlns="http://www.w3.org/2000/svg" xmlns:xlink="http://www.w3.org/1999/xlink" x="0px"
	 y="0px" viewBox="0 0 76.6 80" style="enable-background:new 0 0 76.6 80;" xml:space="preserve">
<g>
	<path d="M70.2,31.1c2.5,0,4.8,1,6.4,2.7V23.4c0-4.7-3.8-8.5-8.5-8.5H45.4c1.4-1.6,2.3-3.7,2.3-6c0-4.9-4-8.9-8.9-8.9
		s-8.9,4-8.9,8.9c0,2.3,0.9,4.4,2.3,6H8.5c-4.7,0-8.5,3.8-8.5,8.5v9.9c1.6-1.4,3.7-2.3,6-2.3c4.9,0,8.9,4,8.9,8.9s-4,8.9-8.9,8.9
		c-2.3,0-4.4-0.9-6-2.3v9.9c0,4.7,3.8,8.5,8.5,8.5h23.6c-1.4,1.6-2.3,3.7-2.3,6c0,4.9,4,8.9,8.9,8.9s8.9-4,8.9-8.9
		c0-2.3-0.9-4.4-2.3-6h22.7c4.7,0,8.5-3.8,8.5-8.5V46.2c-1.6,1.7-3.9,2.7-6.4,2.7c-4.9,0-8.9-4-8.9-8.9S65.3,31.1,70.2,31.1z"/>
</g>
</svg>
